<?xml version="1.0" encoding="UTF-8"?>
<svg xmlns="http://www.w3.org/2000/svg" xml:space="preserve" width="222.213mm" height="152.404mm" version="1.1" style="shape-rendering:geometricPrecision; text-rendering:geometricPrecision; image-rendering:optimizeQuality; fill-rule:evenodd; clip-rule:evenodd"
viewBox="0 0 222.0653 152.3021"
 xmlns:xlink="http://www.w3.org/1999/xlink"
 xmlns:xodm="http://www.corel.com/coreldraw/odm/2003">
 <defs>
  <style type="text/css">
   <![CDATA[
    .fil0 {fill:#323232}
    .fil1 {fill:#FCA701}
    .fil2 {fill:url(#id0)}
   ]]>
  </style>
  <linearGradient id="id0" gradientUnits="userSpaceOnUse" x1="86.9991" y1="44.6388" x2="133.5702" y2="3.9298">
   <stop offset="0" style="stop-opacity:1; stop-color:#77AE5B"/>
   <stop offset="0.611765" style="stop-opacity:1; stop-color:#4E7E40"/>
   <stop offset="1" style="stop-opacity:1; stop-color:#254E24"/>
  </linearGradient>
 </defs>
 <g id="Camada_x0020_1">
  <metadata id="CorelCorpID_0Corel-Layer"/>
  <g id="_2682710043664">
   <path class="fil0" d="M17.8613 142.6549l5.0669 0c-0.8081,-1.7945 -1.648,-3.5782 -2.5269,-5.336 -0.67,-1.34 -1.3667,-2.6763 -2.1209,-3.9709 -0.5306,-0.9111 -1.1655,-1.9685 -1.8638,-2.7598l-1.0618 -1.2033 1.513 -0.5349c3.5589,-1.2582 7.0033,-3.9592 7.5613,-7.9149 0.2884,-2.0448 -0.067,-4.193 -1.3988,-5.8261 -1.6819,-2.0624 -4.4124,-2.7085 -6.9507,-2.7485l-11.8153 0.0366 -4.2644 30.2184 4.4292 0 1.7727 -12.6456 0.9421 0c0.8533,0 1.7067,-0.0394 2.5607,-0.0394l0.4206 0 0.3105 0.2837c2.1584,1.9736 3.7829,4.6267 5.0747,7.2263 0.5603,1.1275 1.0701,2.2754 1.5703,3.4303 0.2531,0.5844 0.5046,1.1974 0.7806,1.7841zm-11.1333 -16.2699l1.4416 -10.4396 0.9441 0c2.1789,0 4.4077,0.0691 6.5681,0.3646 3.0806,0.4212 4.4689,1.8955 4.0386,5.0413 -0.4311,3.1528 -3.884,4.5884 -6.6916,4.8326 -1.6818,0.1463 -3.3698,0.2011 -5.0575,0.2011l-1.2433 0zm37.5624 11.3775c-1.5651,1.4726 -3.8476,2.2558 -5.9713,2.051 -2.9897,-0.2885 -5.4208,-2.4432 -5.4702,-5.5522l-0.0175 -1.1006 16.1362 0c0.2824,-2.7489 0.115,-5.9008 -1.4361,-8.1984 -1.598,-2.367 -4.23,-3.1471 -6.981,-3.1471 -2.7636,0 -5.48,1.1849 -7.5547,2.9727 -2.3276,2.0057 -3.8622,4.7483 -4.294,7.7959 -0.3965,2.7988 0.2056,5.5684 2.1863,7.6561 1.7624,1.8577 4.2844,2.8087 6.826,2.8087 3.9373,0 7.2845,-1.5589 9.5487,-4.5949l-2.9724 -0.6912zm-10.6868 -8.1631c0.8623,-2.8746 3.2821,-4.9873 6.3559,-4.9873 1.5326,0 2.9766,0.5517 4.0228,1.6894 0.9037,0.9824 1.4052,2.3152 1.3539,3.6509l-0.0401 1.0417 -12.1109 0 0.4184 -1.3947zm38.4321 -5.2532c-0.2543,-0.4285 -1.0629,-0.9819 -1.4237,-1.1907 -1.2027,-0.696 -2.6205,-1.0671 -3.9976,-1.1869 -0.6888,-0.0599 -1.4242,-0.113 -2.1148,-0.0455l-0.611 0.1146 -0.0255 0.0035c-5.0683,0.703 -9.6821,5.5403 -10.3819,10.5791 -0.3316,2.3871 0.2047,4.8128 1.6145,6.7794 1.3209,1.8425 3.288,3.0976 5.5433,3.4238 1.0377,0.1501 2.1724,0.0486 3.1913,-0.1815l0.0288 -0.0065 0.029 -0.005c1.8117,-0.3066 3.9683,-1.0874 5.3851,-2.2758 0.4085,-0.3575 0.8562,-0.7688 1.2634,-1.2008l-2.0582 -1.5327c-0.8874,0.7074 -1.9947,1.2214 -3.0641,1.4524 -0.9673,0.3131 -2.029,0.4344 -3.0328,0.2551 -1.5012,-0.268 -2.7896,-1.0804 -3.6142,-2.3679 -0.8893,-1.3887 -1.081,-3.0748 -0.8528,-4.6812 0.4704,-3.3132 2.6864,-6.2267 6.0971,-6.7866l0.0299 -0.0049 0.0301 -0.0032c1.1691,-0.1254 2.371,-0.0306 3.4364,0.5022l0.2285 0.1142 0.1533 0.2044c0.154,0.2052 0.3026,0.408 0.4178,0.6385l0.0202 0.0404 0.0125 0.0313 3.3976 0.3836c0.2413,-0.9282 0.3666,-2.3046 0.2977,-3.0534zm21.491 -2.1766l-7.893 13.4803 -4.6117 -13.4803 -4.8417 0 4.6615 13.6642 0.9056 2.2191 -0.0772 0.3349c-1.0989,4.7619 -3.7724,8.9831 -7.2217,12.3933l2.3806 1.521c1.8725,-1.7505 3.6572,-3.5805 5.3359,-5.5215 1.8563,-2.1463 3.5616,-4.4026 5.1702,-6.7393 1.8827,-2.7351 3.6354,-5.5655 5.3386,-8.4151 1.8699,-3.1285 3.6875,-6.2911 5.4961,-9.4565l-4.6432 0zm25.9793 2.1766c-0.2543,-0.4285 -1.0629,-0.9819 -1.4236,-1.1907 -1.2028,-0.696 -2.6205,-1.0671 -3.9976,-1.1869 -0.6889,-0.0599 -1.4243,-0.113 -2.1149,-0.0455l-0.6109 0.1146 -0.0256 0.0035c-5.0683,0.703 -9.6821,5.5403 -10.3819,10.5791 -0.3316,2.3871 0.2048,4.8128 1.6145,6.7794 1.3209,1.8425 3.288,3.0976 5.5433,3.4238 1.0377,0.1501 2.1724,0.0486 3.1913,-0.1815l0.0288 -0.0065 0.029 -0.005c1.8118,-0.3066 3.9683,-1.0874 5.3851,-2.2758 0.4085,-0.3575 0.8562,-0.7688 1.2635,-1.2008l-2.0583 -1.5327c-0.8874,0.7074 -1.9947,1.2214 -3.0641,1.4524 -0.9673,0.3131 -2.0289,0.4344 -3.0328,0.2551 -1.5011,-0.268 -2.7896,-1.0804 -3.6142,-2.3679 -0.8892,-1.3887 -1.081,-3.0748 -0.8528,-4.6812 0.4704,-3.3132 2.6864,-6.2267 6.0971,-6.7866l0.0299 -0.0049 0.0301 -0.0032c1.1692,-0.1254 2.3711,-0.0306 3.4364,0.5022l0.2285 0.1142 0.1534 0.2044c0.1539,0.2052 0.3025,0.408 0.4177,0.6385l0.0202 0.0404 0.0125 0.0313 3.3976 0.3836c0.2413,-0.9282 0.3666,-2.3046 0.2977,-3.0534zm9.3772 18.2871c0.5488,-0.8506 1.4071,-2.8611 1.6399,-3.9404 -1.7099,-0.2857 -3.2517,-1.1782 -3.4708,-3.1401 -0.2196,-1.0814 -0.2184,-2.2027 -0.0818,-3.2947l2.8286 -20.843 -4.1566 0 -2.9076 21.2974 -0.0026 0.0158c-0.1103,0.6614 -0.1509,1.3314 -0.228,1.9871 -0.5019,5.0562 1.4089,7.63 6.379,7.9179zm21.8904 -4.8709c-1.5651,1.4726 -3.8476,2.2558 -5.9713,2.051 -2.9897,-0.2885 -5.4208,-2.4432 -5.4702,-5.5522l-0.0175 -1.1006 16.1362 0c0.2824,-2.7489 0.115,-5.9008 -1.4361,-8.1984 -1.598,-2.367 -4.23,-3.1471 -6.981,-3.1471 -2.7636,0 -5.48,1.1849 -7.5547,2.9727 -2.3276,2.0057 -3.8622,4.7483 -4.294,7.7959 -0.3965,2.7988 0.2056,5.5684 2.1863,7.6561 1.7624,1.8577 4.2844,2.8087 6.826,2.8087 3.9373,0 7.2845,-1.5589 9.5487,-4.5949l-2.9724 -0.6912zm-10.6869 -8.1631c0.8624,-2.8746 3.2822,-4.9873 6.356,-4.9873 1.5326,0 2.9765,0.5517 4.0228,1.6894 0.9037,0.9824 1.4052,2.3152 1.3539,3.6509l-0.0402 1.0417 -12.1108 0 0.4183 -1.3947zm38.4322 -5.2532c-0.2543,-0.4285 -1.0629,-0.9819 -1.4237,-1.1907 -1.2027,-0.696 -2.6205,-1.0671 -3.9976,-1.1869 -0.6888,-0.0599 -1.4242,-0.113 -2.1148,-0.0455l-0.611 0.1146 -0.0255 0.0035c-5.0683,0.703 -9.6821,5.5403 -10.3819,10.5791 -0.3316,2.3871 0.2047,4.8128 1.6145,6.7794 1.3209,1.8425 3.288,3.0976 5.5433,3.4238 1.0377,0.1501 2.1724,0.0486 3.1913,-0.1815l0.0288 -0.0065 0.029 -0.005c1.8117,-0.3066 3.9682,-1.0874 5.3851,-2.2758 0.4085,-0.3575 0.8562,-0.7688 1.2634,-1.2008l-2.0582 -1.5327c-0.8874,0.7074 -1.9947,1.2214 -3.0642,1.4524 -0.9672,0.3131 -2.0289,0.4344 -3.0328,0.2551 -1.5011,-0.268 -2.7895,-1.0804 -3.6141,-2.3679 -0.8893,-1.3887 -1.081,-3.0748 -0.8528,-4.6812 0.4704,-3.3132 2.6864,-6.2267 6.0971,-6.7866l0.0299 -0.0049 0.0301 -0.0032c1.1691,-0.1254 2.371,-0.0306 3.4363,0.5022l0.2286 0.1142 0.1533 0.2044c0.154,0.2052 0.3026,0.408 0.4177,0.6385l0.0203 0.0404 0.0125 0.0313 3.3976 0.3836c0.2413,-0.9282 0.3666,-2.3046 0.2977,-3.0534zm24.2227 -2.1766l-18.5216 0 -0.448 3.2303 11.3538 0 -15.1668 17.2548 19.7075 0 0.448 -3.2303 -12.5792 0 15.2063 -17.2548zm4.8515 15.7361l-2.728 1.6959c1.518,2.3738 4.9657,3.4076 7.6027,3.4076 2.1025,0 4.2542,-0.7639 5.9486,-1.991 1.418,-1.0268 2.7637,-2.5824 3.0249,-4.3703 0.3882,-2.6561 -2.1036,-3.9774 -4.1715,-4.8956 -1.2261,-0.5445 -2.5208,-0.984 -3.7224,-1.5685 -1.0825,-0.5265 -2.3421,-1.3572 -2.1531,-2.7439 0.2563,-1.8794 1.9892,-2.6703 3.7129,-2.6703 1.8083,0 3.2367,0.4242 4.5585,1.4942l2.3995 -1.5609c-1.6888,-1.914 -4.5706,-2.8485 -7.0368,-2.8485 -1.9151,0 -3.7685,0.8246 -5.2108,2.0541 -1.1593,0.9883 -2.326,2.5127 -2.5403,4.0626 -0.3195,2.3078 1.893,3.5572 3.6628,4.434 1.1389,0.5643 2.3308,1.0363 3.4539,1.6265 0.8883,0.467 1.902,1.0992 2.2922,2.0699 0.1898,0.2393 0.2924,0.5317 0.2924,0.8605l0 0.0861 -0.0137 0.085c-0.1399,0.8747 -0.6742,1.574 -1.4221,2.0294 -0.8716,0.5308 -1.9515,0.6949 -2.9568,0.6949 -2.0013,0 -3.6787,-0.589 -4.9929,-1.9521z"/>
   <g>
    <path class="fil1" d="M72.5751 51.6588c3.3338,10.6378 10.9487,19.4059 21.0147,24.1968 18.7708,8.9339 45.085,1.0763 53.894,-18.2346 0.6681,-1.4644 1.2619,-3.1406 1.7154,-4.9293 2.0141,-7.9437 0.2319,-20.2624 -8.0672,-21.7813 5.7981,7.422 1.7158,18.0219 -4.065,24.1426 -5.6696,6.003 -14.7681,10.9516 -26.8707,13.3168 0.602,0.7705 1.1846,1.6626 1.8034,2.4198l-10.2515 -2.449c5.5461,-4.6476 8.4525,-6.9313 8.4525,-6.9313 -0.3267,2.4177 -0.4901,3.6265 -0.4901,3.6265 3.6734,-0.6991 6.9389,-1.7914 9.7776,-3.2879 5.4187,-2.8566 12.5786,-8.9374 14.1042,-15.5735 1.082,-4.7073 -1.0389,-9.723 -6.4041,-10.163 -7.5074,-0.6157 -13.7146,7.2666 -18.6669,12.0428 -1.7142,1.6533 -3.4729,3.1862 -5.5122,4.4786 -9.3576,5.9301 -21.3118,4.9389 -30.434,-0.874z"/>
    <path class="fil2" d="M149.4901 27.8694c-3.3337,-10.6379 -10.9487,-19.4059 -21.0147,-24.1969 -18.7707,-8.9339 -45.0849,-1.0763 -53.8939,18.2346 -0.6681,1.4644 -1.262,3.1407 -1.7155,4.9293 -2.0141,7.9437 -0.2319,20.2624 8.0672,21.7813 -5.7981,-7.422 -1.7157,-18.0219 4.0651,-24.1425 5.6695,-6.003 14.7681,-10.9516 26.8707,-13.3168 -0.6021,-0.7706 -1.1846,-1.6627 -1.8034,-2.4198l10.2514 2.449c-5.546,4.6475 -8.4524,6.9313 -8.4524,6.9313 0.3267,-2.4177 0.4901,-3.6266 0.4901,-3.6266 -3.6735,0.6991 -6.9389,1.7915 -9.7777,3.288 -5.4187,2.8566 -12.5786,8.9373 -14.1041,15.5734 -1.0821,4.7073 1.0388,9.723 6.404,10.163 7.5075,0.6157 13.7146,-7.2665 18.6669,-12.0428 1.7142,-1.6532 3.4729,-3.1862 5.5122,-4.4785 9.3576,-5.9301 21.3119,-4.939 30.434,0.874z"/>
   </g>
  </g>
 </g>
</svg>
