<?xml version="1.0" encoding="UTF-8"?>
<!DOCTYPE svg PUBLIC "-//W3C//DTD SVG 1.1//EN" "http://www.w3.org/Graphics/SVG/1.1/DTD/svg11.dtd">
<!-- Creator: CorelDRAW -->
<svg xmlns="http://www.w3.org/2000/svg" xml:space="preserve" width="367.927mm" height="67.0312mm" version="1.1" style="shape-rendering:geometricPrecision; text-rendering:geometricPrecision; image-rendering:optimizeQuality; fill-rule:evenodd; clip-rule:evenodd"
viewBox="0 0 14923.51 2718.86"
 xmlns:xlink="http://www.w3.org/1999/xlink"
 xmlns:xodm="http://www.corel.com/coreldraw/odm/2003">
 <defs>
  <style type="text/css">
   <![CDATA[
    .fil0 {fill:#323232}
    .fil1 {fill:#FCA701}
    .fil2 {fill:url(#id0)}
   ]]>
  </style>
  <linearGradient id="id0" gradientUnits="userSpaceOnUse" x1="540.78" y1="1532.98" x2="2100.97" y2="282.72">
   <stop offset="0" style="stop-opacity:1; stop-color:#77AE5B"/>
   <stop offset="0.611765" style="stop-opacity:1; stop-color:#4E7E40"/>
   <stop offset="1" style="stop-opacity:1; stop-color:#254E24"/>
  </linearGradient>
 </defs>
 <g id="Camada_x0020_1">
  <metadata id="CorelCorpID_0Corel-Layer"/>
  <g id="_2095966257776">
   <path class="fil0" d="M4174.91 2211.06l266.71 0c-42.54,-94.45 -86.74,-188.35 -133.01,-280.87 -35.26,-70.53 -71.94,-140.87 -111.63,-209.01 -27.93,-47.96 -61.35,-103.62 -98.11,-145.27l-55.89 -63.34 79.64 -28.16c187.33,-66.22 368.63,-208.39 397.99,-416.61 15.18,-107.63 -3.52,-220.71 -73.62,-306.67 -88.53,-108.56 -232.25,-142.56 -365.86,-144.67l-621.92 1.92 -224.47 1590.6 233.14 0 93.31 -665.62 49.59 0c44.91,0 89.83,-2.07 134.79,-2.07l22.14 0 16.34 14.94c113.61,103.88 199.12,243.53 267.12,380.37 29.5,59.34 56.33,119.76 82.65,180.56 13.32,30.76 26.56,63.03 41.09,93.91zm-586.02 -856.39l75.89 -549.51 49.69 0c114.69,0 232,3.64 345.72,19.19 162.16,22.17 235.23,99.78 212.58,265.36 -22.69,165.96 -204.44,241.52 -352.22,254.37 -88.52,7.7 -177.37,10.59 -266.21,10.59l-65.44 0zm1977.15 598.87c-82.38,77.51 -202.52,118.74 -314.31,107.96 -157.36,-15.19 -285.33,-128.6 -287.93,-292.25l-0.92 -57.93 849.35 0c14.86,-144.69 6.05,-310.59 -75.6,-431.53 -84.12,-124.6 -222.65,-165.66 -367.45,-165.66 -145.46,0 -288.45,62.37 -397.65,156.48 -122.52,105.57 -203.3,249.94 -226.02,410.35 -20.87,147.32 10.82,293.1 115.08,402.99 92.77,97.78 225.52,147.85 359.29,147.85 207.24,0 383.43,-82.06 502.61,-241.86l-156.46 -36.39zm-562.51 -429.67c45.39,-151.31 172.76,-262.52 334.56,-262.52 80.66,0 156.67,29.04 211.75,88.92 47.57,51.71 73.96,121.86 71.26,192.17l-2.11 54.83 -637.47 0 22.02 -73.41zm2022.94 -276.51c-13.39,-22.56 -55.95,-51.69 -74.93,-62.68 -63.31,-36.63 -137.93,-56.17 -210.42,-62.47 -36.26,-3.15 -74.97,-5.95 -111.32,-2.39l-32.16 6.03 -1.34 0.18c-266.78,37 -509.63,291.62 -546.47,556.85 -17.45,125.65 10.77,253.33 84.98,356.84 69.53,96.98 173.07,163.05 291.78,180.22 54.62,7.9 114.35,2.56 167.98,-9.55l1.52 -0.34 1.53 -0.26c95.36,-16.14 208.87,-57.24 283.45,-119.79 21.5,-18.82 45.07,-40.47 66.5,-63.21l-108.34 -80.68c-46.71,37.24 -104.99,64.29 -161.28,76.45 -50.91,16.48 -106.8,22.86 -159.64,13.43 -79.01,-14.11 -146.84,-56.87 -190.24,-124.64 -46.81,-73.1 -56.9,-161.85 -44.89,-246.41 24.76,-174.39 141.41,-327.75 320.94,-357.22l1.57 -0.26 1.58 -0.17c61.54,-6.6 124.8,-1.61 180.88,26.43l12.03 6.01 8.07 10.76c8.11,10.79 15.93,21.48 21.99,33.61l1.07 2.12 0.66 1.65 178.84 20.19c12.7,-48.86 19.29,-121.3 15.67,-160.72zm1131.21 -114.56l-415.46 709.56 -242.75 -709.56 -254.85 0 245.36 719.24 47.67 116.8 -4.06 17.62c-57.84,250.66 -198.57,472.85 -380.13,652.34l125.31 80.06c98.56,-92.14 192.5,-188.47 280.87,-290.64 97.71,-112.97 187.47,-231.73 272.14,-354.73 99.1,-143.97 191.36,-292.94 281.01,-442.94 98.43,-164.67 194.1,-331.14 289.3,-497.76l-244.4 0zm1367.46 114.56c-13.39,-22.56 -55.95,-51.69 -74.93,-62.68 -63.31,-36.63 -137.93,-56.17 -210.42,-62.47 -36.26,-3.15 -74.97,-5.95 -111.32,-2.39l-32.16 6.03 -1.34 0.18c-266.78,37 -509.63,291.62 -546.46,556.85 -17.45,125.65 10.77,253.33 84.98,356.84 69.53,96.98 173.07,163.05 291.78,180.22 54.62,7.9 114.35,2.56 167.98,-9.55l1.52 -0.34 1.53 -0.26c95.36,-16.14 208.87,-57.24 283.45,-119.79 21.5,-18.82 45.07,-40.47 66.5,-63.21l-108.34 -80.68c-46.71,37.24 -105,64.29 -161.29,76.45 -50.91,16.48 -106.8,22.86 -159.64,13.43 -79.01,-14.11 -146.83,-56.87 -190.24,-124.64 -46.81,-73.1 -56.9,-161.85 -44.89,-246.41 24.76,-174.39 141.41,-327.75 320.94,-357.22l1.57 -0.26 1.58 -0.17c61.54,-6.6 124.81,-1.61 180.88,26.43l12.03 6.01 8.08 10.76c8.1,10.79 15.92,21.48 21.99,33.61l1.06 2.12 0.66 1.65 178.84 20.19c12.7,-48.86 19.29,-121.3 15.67,-160.72zm493.58 962.57c28.88,-44.78 74.06,-150.6 86.31,-207.41 -90,-15.04 -171.16,-62.02 -182.69,-165.29 -11.56,-56.92 -11.5,-115.94 -4.31,-173.42l148.89 -1097.11 -218.79 0 -153.05 1121.03 -0.14 0.83c-5.8,34.81 -7.94,70.09 -12,104.59 -26.42,266.15 74.16,401.62 335.77,416.77zm1152.23 -256.39c-82.38,77.51 -202.52,118.74 -314.31,107.96 -157.36,-15.19 -285.33,-128.6 -287.93,-292.25l-0.92 -57.93 849.35 0c14.86,-144.69 6.05,-310.59 -75.6,-431.53 -84.12,-124.6 -222.65,-165.66 -367.45,-165.66 -145.46,0 -288.45,62.37 -397.65,156.48 -122.52,105.57 -203.3,249.94 -226.02,410.35 -20.87,147.32 10.82,293.1 115.08,402.99 92.77,97.78 225.52,147.85 359.29,147.85 207.24,0 383.43,-82.06 502.61,-241.86l-156.46 -36.39zm-562.52 -429.67c45.39,-151.31 172.76,-262.52 334.56,-262.52 80.67,0 156.68,29.04 211.75,88.92 47.57,51.71 73.96,121.86 71.26,192.17l-2.11 54.83 -637.47 0 22.02 -73.41zm2022.94 -276.51c-13.39,-22.56 -55.95,-51.69 -74.94,-62.68 -63.31,-36.63 -137.93,-56.17 -210.42,-62.47 -36.26,-3.15 -74.97,-5.95 -111.32,-2.39l-32.16 6.03 -1.34 0.18c-266.78,37 -509.63,291.62 -546.47,556.85 -17.45,125.65 10.77,253.33 84.98,356.84 69.53,96.98 173.07,163.05 291.78,180.22 54.62,7.9 114.35,2.56 167.98,-9.55l1.51 -0.34 1.53 -0.26c95.36,-16.14 208.87,-57.24 283.45,-119.79 21.5,-18.82 45.07,-40.47 66.5,-63.21l-108.34 -80.68c-46.71,37.24 -104.99,64.29 -161.28,76.45 -50.91,16.48 -106.8,22.86 -159.64,13.43 -79.01,-14.11 -146.84,-56.87 -190.24,-124.64 -46.8,-73.1 -56.9,-161.85 -44.89,-246.41 24.76,-174.39 141.41,-327.75 320.94,-357.22l1.57 -0.26 1.58 -0.17c61.54,-6.6 124.8,-1.61 180.88,26.43l12.03 6.01 8.07 10.76c8.1,10.79 15.93,21.48 21.99,33.61l1.07 2.12 0.66 1.65 178.84 20.19c12.7,-48.86 19.29,-121.3 15.67,-160.72zm1275 -114.56l-974.91 0 -23.58 170.03 597.63 0 -798.33 908.23 1037.33 0 23.58 -170.03 -662.12 0 800.4 -908.24zm255.36 828.29l-143.59 89.26c79.91,124.95 261.38,179.37 400.18,179.37 110.67,0 223.93,-40.21 313.12,-104.8 74.64,-54.04 145.47,-135.92 159.22,-230.03 20.43,-139.81 -110.73,-209.36 -219.58,-257.69 -64.53,-28.66 -132.68,-51.79 -195.93,-82.56 -56.98,-27.72 -123.28,-71.44 -113.33,-144.43 13.49,-98.93 104.7,-140.56 195.44,-140.56 95.18,0 170.37,22.33 239.94,78.65l126.3 -82.16c-88.89,-100.75 -240.58,-149.94 -370.39,-149.94 -100.81,0 -198.36,43.4 -274.28,108.12 -61.02,52.02 -122.43,132.26 -133.71,213.84 -16.81,121.47 99.64,187.24 192.79,233.4 59.95,29.7 122.69,54.55 181.8,85.61 46.76,24.58 100.12,57.85 120.66,108.95 9.99,12.6 15.39,27.99 15.39,45.29l0 4.53 -0.72 4.48c-7.37,46.04 -35.49,82.85 -74.85,106.82 -45.88,27.95 -102.73,36.58 -155.64,36.58 -105.35,0 -193.63,-31 -262.81,-102.75z"/>
   <g>
    <path class="fil1" d="M15.86 1758.84c113.51,362.19 372.77,660.72 715.49,823.84 639.09,304.17 1535.02,36.64 1834.94,-620.84 22.75,-49.86 42.97,-106.93 58.41,-167.83 68.57,-270.46 7.89,-689.88 -274.67,-741.59 197.41,252.7 58.42,613.6 -138.4,821.99 -193.03,204.39 -502.81,372.87 -914.88,453.4 20.5,26.23 40.33,56.61 61.4,82.38l-349.03 -83.38c188.83,-158.24 287.78,-235.99 287.78,-235.99 -11.12,82.31 -16.68,123.47 -16.68,123.47 125.07,-23.8 236.25,-60.99 332.9,-111.94 184.49,-97.26 428.27,-304.29 480.21,-530.23 36.84,-160.27 -35.37,-331.04 -218.04,-346.02 -255.61,-20.97 -466.94,247.4 -635.56,410.02 -58.36,56.29 -118.24,108.48 -187.68,152.49 -318.6,201.9 -725.61,168.16 -1036.2,-29.76z"/>
    <path class="fil2" d="M2634.61 948.87c-113.5,-362.19 -372.77,-660.72 -715.49,-823.84 -639.09,-304.18 -1535.02,-36.65 -1834.94,620.84 -22.74,49.86 -42.97,106.93 -58.4,167.83 -68.57,270.46 -7.9,689.88 274.67,741.59 -197.41,-252.7 -58.42,-613.6 138.4,-821.99 193.03,-204.38 502.81,-372.87 914.88,-453.4 -20.5,-26.23 -40.33,-56.61 -61.4,-82.39l349.03 83.38c-188.83,158.24 -287.78,235.99 -287.78,235.99 11.12,-82.32 16.69,-123.48 16.69,-123.48 -125.07,23.81 -236.25,61 -332.91,111.95 -184.49,97.26 -428.27,304.29 -480.21,530.23 -36.84,160.27 35.37,331.04 218.04,346.02 255.6,20.96 466.94,-247.41 635.56,-410.02 58.36,-56.29 118.24,-108.48 187.68,-152.49 318.6,-201.9 725.61,-168.16 1036.19,29.76z"/>
   </g>
  </g>
 </g>
</svg>
