<?xml version="1.0" encoding="UTF-8"?>
<!DOCTYPE svg PUBLIC "-//W3C//DTD SVG 1.1//EN" "http://www.w3.org/Graphics/SVG/1.1/DTD/svg11.dtd">
<!-- Creator: CorelDRAW -->
<svg xmlns="http://www.w3.org/2000/svg" xml:space="preserve" width="52.9166mm" height="52.9166mm" version="1.1" style="shape-rendering:geometricPrecision; text-rendering:geometricPrecision; image-rendering:optimizeQuality; fill-rule:evenodd; clip-rule:evenodd"
viewBox="0 0 100.83 100.83"
 xmlns:xlink="http://www.w3.org/1999/xlink"
 xmlns:xodm="http://www.corel.com/coreldraw/odm/2003">
 <defs>
  <style type="text/css">
   <![CDATA[
    .fil2 {fill:#F9FAFB}
    .fil1 {fill:#6FCF97;fill-rule:nonzero}
    .fil0 {fill:#F9FAFB;fill-rule:nonzero}
   ]]>
  </style>
 </defs>
 <g id="Camada_x0020_1">
  <metadata id="CorelCorpID_0Corel-Layer"/>
  <g id="_2176607001328">
   <rect class="fil0" x="-0" y="0" width="100.83" height="100.83"/>
   <g>
    <path class="fil1" d="M95.54 50.42c0,24.92 -20.2,45.13 -45.13,45.13 -24.92,0 -45.13,-20.2 -45.13,-45.13 0,-24.92 20.2,-45.13 45.13,-45.13 24.92,0 45.13,20.2 45.13,45.13z"/>
    <path class="fil2" d="M93.22 50.42c0,-23.64 -19.16,-42.81 -42.81,-42.81 -23.64,0 -42.81,19.16 -42.81,42.81 0,23.64 19.16,42.81 42.81,42.81 23.64,0 42.81,-19.16 42.81,-42.81z"/>
    <path class="fil1" d="M58.3 69.56c-3.52,0 -7.11,-1.2 -10.66,-3.57 -1.19,-0.79 -2.66,-1.04 -4.04,-0.7l-0.38 0.09c-0.03,1.44 -0.83,2.83 -2.2,3.54l-14.96 7.72c-0.16,0.08 -0.34,0.12 -0.51,0.12 -0.4,0 -0.79,-0.22 -0.98,-0.6 -0.28,-0.54 -0.07,-1.21 0.48,-1.49l14.96 -7.72c0.91,-0.47 1.27,-1.59 0.8,-2.51l-5.47 -10.69c-0.46,-0.9 -1.54,-1.27 -2.45,-0.84l-14.23 6.71c-0.55,0.26 -1.21,0.02 -1.47,-0.53 -0.26,-0.55 -0.02,-1.21 0.53,-1.47l14.23 -6.71c1.63,-0.77 3.5,-0.38 4.68,0.86l1.5 -0.69 0.39 -18.7c-0,-0.14 0.02,-0.28 0.07,-0.42 0.08,-0.21 0.21,-0.38 0.38,-0.5l0.01 -0 0.01 -0.01 0 -0 0.02 -0.01 0 -0 0.01 -0 0.02 -0.01 0.01 -0 0.02 -0.01 0 -0c0.05,-0.03 0.11,-0.06 0.17,-0.08l0 -0 0.02 -0.01 0 -0 0.01 -0 20.38 -7.22c0.26,-0.09 0.55,-0.08 0.81,0.03l18.46 8.03c0.29,0.12 0.53,0.35 0.63,0.67 0.05,0.14 0.06,0.28 0.06,0.42l-0.35 16.39c1.34,0.18 2.63,0.76 3.69,1.74 0.55,0.5 0.84,1.22 0.81,1.96 -0.03,0.74 -0.39,1.43 -0.98,1.88 -1.6,1.23 -3.22,2.51 -4.78,3.76 -2.8,2.23 -5.7,4.53 -8.66,6.65 -3.56,2.55 -7.2,3.86 -10.81,3.91 -0.07,0 -0.14,0 -0.21,0zm-0.76 -17.7l0.23 -11.33 -17.07 -6.55 -0.34 16.11 2.3 -1.05c3.29,-1.51 7.17,-1.14 10.12,0.96l1.62 1.15c0.66,0.47 1.45,0.72 2.26,0.72l0.89 0zm2.44 -11.28l-0.23 11.28 4.85 0c1.08,0 2.1,0.42 2.86,1.18l0.03 0.03 0.01 0.01 0.03 0.03 0.01 0.01c0.02,0.02 0.04,0.04 0.06,0.07l0 0 0.01 0.01 0.02 0.03 0.01 0.01 0.02 0.03 0.01 0.01 0.02 0.03 0.01 0.01 0 0 0 0.01 0.03 0.03 0 0 0.02 0.03 0.01 0.01 0.02 0.02 0.01 0.01 0.03 0.03 0 0 0.01 0.01 0.02 0.03 0.01 0.01 0.02 0.03 0.01 0.01 0.03 0.04 0 0c0.01,0.01 0.02,0.02 0.03,0.04l0.01 0.01 0.02 0.03 0.01 0.01 0.02 0.03 0.01 0.01 0.02 0.04 0 0 0.01 0.01 0.02 0.03 0.01 0.01 0.02 0.03 0.01 0.02 0.02 0.04 0 0 0.02 0.04 0.01 0.01 0.01 0.02 0.01 0.02 0.01 0.02 0.01 0.02 0.02 0.04 0 0 0.01 0.01 0.01 0.02 0.01 0.02 0.01 0.03 0.01 0.01 0.01 0.03 0.01 0.01 0 0 0.02 0.03 0 0 0.01 0.02 0.01 0.01 0.01 0.02 0.01 0.02 0.01 0.02 0 0 0.01 0.04 0.01 0.02 0.01 0.02 0.01 0.02 0.01 0.02 0.01 0.02 0.01 0.02 0.01 0.02 0.01 0.04 0.01 0.02 0.01 0.02 0.01 0.02 0.01 0.02 0.01 0.02 0 0 0.01 0.04 0 0 0.01 0.04 0 0 0.01 0.02 0.01 0.02 0.01 0.02 0 0.01 0.01 0.03 0 0 0.01 0.04 0 0 0.01 0.02 0 0.02 0.01 0.02 0 0.02 0.01 0.02 0 0.01c0,0.02 0.01,0.04 0.01,0.05l0 0.01 0 0.02 0 0.02 0 0.02 0 0.02 0 0.03 0.01 0.04 5.65 -4.24c0.85,-0.64 1.81,-1.05 2.8,-1.24l0.31 -14.97 -17.37 5.83zm0.18 -6.23c-0.24,-0.06 -1.52,-0.57 -1.69,-0.66 0.43,-0.14 0.73,-0.23 0.63,-0.4 -0.1,-0.18 -0.77,-0.13 -1.04,-0.12 -0.75,0.03 -1.5,0.07 -2.25,0.1 -0.31,0.03 -0.3,0.23 -0.32,0.33 -0.04,0.14 -0.07,0.28 -0.11,0.41 -0.03,0.1 -0.13,0.38 -0.07,0.46 0.07,0.09 0.29,0.12 0.47,0.1 0.22,-0.02 0.42,-0.1 0.59,-0.17 0.46,0.18 1.53,0.63 2.01,0.73 0.52,0.1 1.44,-0.01 2.07,-0.06 0.69,-0.05 1.63,-0.08 2.08,-0.25 0.29,-0.12 0.35,-0.24 0.45,-0.37 0.23,-0.31 0.46,-0.62 0.7,-0.94 0.11,-0.16 0.11,-0.24 -0.45,-0.31 -0.18,-0.02 -0.34,-0.04 -0.51,-0.06 -0.34,-0.04 -0.69,-0.09 -1.02,-0.12 -0.63,-0.07 -0.69,0.06 -0.78,0.19 -0.09,0.13 -0.17,0.25 -0.26,0.38 -0.17,0.25 -0.36,0.5 -0.53,0.75zm2.65 -3.22c-0.04,0.1 -0.5,0.68 -0.57,0.72 -0.2,-0.03 -0.75,-0.09 -0.95,-0.04 -0.38,0.09 -0.11,0.25 0.1,0.36 0.24,0.13 0.48,0.25 0.72,0.38 0.18,0.09 0.53,0.32 0.74,0.38 0.26,0.07 0.57,-0.03 0.98,-0.12 0.33,-0.07 0.66,-0.15 0.99,-0.22 0.37,-0.08 0.78,-0.13 0.81,-0.27 0.03,-0.19 -0.58,-0.19 -0.77,-0.21 0.01,-0.03 0.05,-0.06 0.08,-0.09 0.07,-0.09 0.13,-0.18 0.2,-0.27 0.1,-0.12 0.2,-0.24 0.3,-0.36 0.25,-0.32 0.26,-0.42 -0.45,-0.75 -0.42,-0.19 -1.22,-0.58 -1.78,-0.62 -0.4,-0.02 -1.48,0.07 -1.94,0.11 -2.18,0.17 -2.22,0.08 -2.01,0.53 0.07,0.13 0.12,0.25 0.17,0.37 0.17,0.37 0.25,0.32 1.46,0.23 0.48,-0.04 0.97,-0.07 1.45,-0.11 0.11,-0.01 0.38,-0.03 0.48,-0.03zm-7.01 -0.47c-0.61,0.05 -1.22,0.1 -1.84,0.15 -0.67,0.06 -1.32,0.07 -1.68,0.4 -0.13,0.12 -0.44,0.53 -0.56,0.68 -0.09,0.12 -0.19,0.23 -0.25,0.34 -0.02,0.04 -0.04,0.13 -0.03,0.17 0.02,0.06 0.1,0.12 0.21,0.17 0.2,0.1 1.39,0.55 1.71,0.68 0.97,0.38 0.75,0.35 1.82,-0.03 0.22,-0.08 0.74,-0.24 0.88,-0.32 0.11,-0.06 0.08,-0.11 -0.04,-0.17 -0.12,-0.06 -0.29,-0.12 -0.43,-0.18 -0.31,-0.12 -1.58,-0.61 -1.75,-0.7 0.11,-0.02 1.05,-0.1 1.23,-0.11 0.39,-0.03 0.79,-0.05 1.18,-0.08 0.05,0 0.01,-0 0.05,0 0.06,0.09 -0.07,0.3 0.41,0.33 0.38,0.02 0.62,-0.19 0.81,-0.29 0.22,-0.13 0.42,-0.24 0.63,-0.37 0.18,-0.1 0.56,-0.28 0.54,-0.37 -0.02,-0.08 -0.65,-0.23 -0.86,-0.29 -0.33,-0.09 -0.65,-0.18 -0.97,-0.27 -0.3,-0.08 -0.68,-0.23 -0.99,-0.12 -0.34,0.11 -0.07,0.3 -0.09,0.38zm-12.98 1.77l16.1 6.18 16.5 -5.53 -15.45 -6.72 -17.15 6.07zm23.11 24.74l0 -0c0.01,-0.01 0.02,-0.02 0.03,-0.03l0 -0 0.01 -0.01 0 -0 0.01 -0.02 0 -0 0.01 -0.02 0 -0 0.01 -0.01 0 -0c0.02,-0.03 0.04,-0.06 0.07,-0.09l0 -0 0.01 -0.02 0 0 0.01 -0.02 0.01 -0.02 0 -0 0 -0 0.01 -0.02 0.01 -0.02 0 -0 0.01 -0.02 0 -0 0.01 -0.02 0 -0 0.01 -0.02 0 -0 0.01 -0.02 0 -0 0.01 -0.02 0 0 0.01 -0.02 0 -0 0.01 -0.02 0 -0c0.01,-0.01 0.01,-0.02 0.02,-0.04l0 -0 0 -0 0.01 -0.02c0.01,-0.01 0.01,-0.03 0.02,-0.04l0 -0 0 -0 0.01 -0.02c0.01,-0.01 0.01,-0.03 0.02,-0.04l0 -0c0.01,-0.01 0.01,-0.02 0.01,-0.04l0 -0 0.01 -0.02 0 -0 0 -0.01 0 -0.01 0 -0.01 0 -0.01 0 -0 0 -0.01 0 -0.01 0 -0.01 0 -0c0,-0.01 0.01,-0.02 0.01,-0.04l0 -0 0 -0.01 0 -0.01 0 -0 0 -0.01 0 -0.01 0 -0.01 0 -0.01 0 -0.01 0 -0.01 0 -0.01 0 -0 0 -0.01 0 -0 0 -0.01 0 -0.01 0 -0.01 0 -0.01 0 -0.01 0 -0.01 0 -0.02 0 -0 0 -0.01 0 -0 0 -0.01 0 -0.01 0 -0.01 0 -0.01 0 -0.02 0 -0 0 -0.02 0 -0 0 -0.02 0 -0.01 0 -0.01 0 -0.01 0 -0 0 -0.02 0 -0 0 -0.02 0 -0 0 -0.02 0 -0 0 -0.02 0 -0 0 -0.02 0 -0 0 -0.02 0 -0 0 -0.02 0 -0 0 -0.02 0 -0 0 -0.02c0,-0.49 -0.19,-0.95 -0.54,-1.3 -0.35,-0.35 -0.81,-0.54 -1.3,-0.54l-5.98 0 -0.01 0 -1.96 0c-1.28,0 -2.5,-0.39 -3.54,-1.13l-1.62 -1.15c-2.31,-1.64 -5.34,-1.93 -7.92,-0.75l-3.84 1.76 -1.95 0.89 4.89 9.55 0.39 -0.1c1.98,-0.5 4.1,-0.13 5.8,1 6.53,4.35 12.8,4.25 19.18,-0.3 2.91,-2.08 5.79,-4.37 8.57,-6.58 1.57,-1.25 3.19,-2.54 4.81,-3.78 0.1,-0.08 0.12,-0.18 0.12,-0.23 0,-0.05 -0.01,-0.15 -0.1,-0.24 -0.92,-0.84 -2.1,-1.25 -3.27,-1.21l-0.01 0c-0.91,0.03 -1.82,0.34 -2.59,0.92l-8.06 6.05c-0.01,0.01 -0.03,0.02 -0.04,0.03l-0.28 0.21c-0.57,0.47 -1.26,0.78 -2,0.89l-0.18 0.02c-0.01,0 -0.02,0 -0.03,0l-9.51 1.38 -2.15 0.31c-0.05,0.01 -0.11,0.01 -0.16,0.01 -0.54,0 -1.01,-0.4 -1.09,-0.95 -0.09,-0.6 0.33,-1.16 0.93,-1.25l2.15 -0.31 9.54 -1.38 0.18 -0.03c0.34,-0.05 0.66,-0.19 0.92,-0.42 0.04,-0.03 0.08,-0.07 0.12,-0.11 0.01,-0.01 0.02,-0.02 0.03,-0.03z"/>
   </g>
  </g>
 </g>
</svg>
