<?xml version="1.0" encoding="UTF-8"?>
<!DOCTYPE svg PUBLIC "-//W3C//DTD SVG 1.1//EN" "http://www.w3.org/Graphics/SVG/1.1/DTD/svg11.dtd">
<!-- Creator: CorelDRAW -->
<svg xmlns="http://www.w3.org/2000/svg" xml:space="preserve" width="254mm" height="254mm" version="1.1" style="shape-rendering:geometricPrecision; text-rendering:geometricPrecision; image-rendering:optimizeQuality; fill-rule:evenodd; clip-rule:evenodd"
viewBox="0 0 25365.79 25365.79"
 xmlns:xlink="http://www.w3.org/1999/xlink"
 xmlns:xodm="http://www.corel.com/coreldraw/odm/2003">
 <defs>
  <style type="text/css">
   <![CDATA[
    .fil1 {fill:#FEFEFE}
    .fil0 {fill:#77AE5B}
    .fil2 {fill:#FCA701}
    .fil3 {fill:url(#id0)}
   ]]>
  </style>
  <linearGradient id="id0" gradientUnits="userSpaceOnUse" x1="7050.61" y1="13825.29" x2="17964.61" y2="4285.09">
   <stop offset="0" style="stop-opacity:1; stop-color:#77AE5B"/>
   <stop offset="0.611765" style="stop-opacity:1; stop-color:#4E7E40"/>
   <stop offset="1" style="stop-opacity:1; stop-color:#254E24"/>
  </linearGradient>
 </defs>
 <g id="Camada_x0020_1">
  <metadata id="CorelCorpID_0Corel-Layer"/>
  <g id="_2060872737136">
   <circle class="fil0" cx="12682.89" cy="12682.89" r="12682.89"/>
   <circle class="fil1" cx="12682.89" cy="12682.89" r="12313.27"/>
   <g>
    <path class="fil2" d="M3670.33 15470.43c781.27,2493 2565.84,4547.81 4924.83,5670.57 4398.96,2093.67 10565.72,252.23 12630.12,-4273.3 156.56,-343.2 295.74,-736.02 402.01,-1155.19 471.99,-1861.63 54.36,-4748.53 -1890.57,-5104.48 1358.81,1739.34 402.09,4223.46 -952.64,5657.85 -1328.68,1406.81 -3460.93,2566.53 -6297.2,3120.83 141.1,180.57 277.62,389.63 422.63,567.07l-2402.44 -573.92c1299.73,-1089.16 1980.84,-1624.36 1980.84,-1624.36 -76.57,566.6 -114.85,849.89 -114.85,849.89 860.86,-163.85 1626.13,-419.83 2291.4,-770.55 1269.88,-669.45 2947.82,-2094.46 3305.33,-3649.67 253.57,-1103.15 -243.46,-2278.6 -1500.81,-2381.72 -1759.38,-144.29 -3214.02,1702.91 -4374.61,2822.24 -401.71,387.44 -813.88,746.69 -1291.8,1049.56 -2192.96,1389.71 -4994.46,1157.45 -7132.26,-204.83z"/>
    <path class="fil3" d="M21695.47 9895.34c-781.27,-2493 -2565.84,-4547.81 -4924.83,-5670.56 -4398.96,-2093.67 -10565.72,-252.24 -12630.12,4273.3 -156.56,343.19 -295.74,736.01 -402.02,1155.18 -471.99,1861.63 -54.35,4748.53 1890.57,5104.48 -1358.8,-1739.34 -402.08,-4223.45 952.65,-5657.84 1328.67,-1406.81 3460.92,-2566.54 6297.2,-3120.83 -141.1,-180.57 -277.62,-389.63 -422.63,-567.08l2402.43 573.92c-1299.72,1089.16 -1980.84,1624.36 -1980.84,1624.36 76.57,-566.6 114.86,-849.88 114.86,-849.88 -860.86,163.84 -1626.14,419.83 -2291.41,770.54 -1269.88,669.45 -2947.81,2094.46 -3305.32,3649.67 -253.58,1103.15 243.46,2278.6 1500.81,2381.72 1759.38,144.3 3214.02,-1702.91 4374.61,-2822.23 401.71,-387.45 813.87,-746.69 1291.8,-1049.56 2192.96,-1389.72 4994.46,-1157.46 7132.26,204.82z"/>
   </g>
  </g>
 </g>
</svg>
